<svg xmlns="http://www.w3.org/2000/svg" width="133.18" height="30" viewBox="0 8 133.18 30" fill="none"><path transform="translate(-55 0)" d="M59.321 16.0156V13.1818H76.2067V16.0156H69.3991V35H66.1179V16.0156H59.321ZM83.2299 13.1818V35H79.938V13.1818H83.2299ZM92.296 35L86.2449 13.1818H89.7072L93.9579 30.0781H94.1603L98.5815 13.1818H102.012L106.433 30.0888H106.635L110.876 13.1818H114.349L108.287 35H104.974L100.382 18.6577H100.211L95.6199 35H92.296ZM117.318 35H113.824L121.675 13.1818H125.479L133.33 35H129.836L123.668 17.1449H123.497L117.318 35ZM117.904 26.456H129.239V29.2259H117.904V26.456ZM154.091 13.1818V35H151.066L139.975 18.9986H139.773V35H136.481V13.1818H139.528L150.629 29.2045H150.831V13.1818H154.091ZM162.185 13.1818V35H158.893V13.1818H162.185Z" fill="#F1EFE8"/><circle cx="122.18" cy="24.09" r="6" fill="#D85A30"/></svg>
